<svg width="185" height="107" viewBox="0 0 185 107" fill="none" xmlns="http://www.w3.org/2000/svg">
<path d="M59.701 75.4017C60.3817 75.3958 61.0546 75.547 61.6674 75.8437C62.2801 76.1403 62.8161 76.5743 63.2337 77.1119V75.6265H65.6524V86.6499H63.9154C63.8245 86.6502 63.7344 86.6325 63.6504 86.5979C63.5664 86.5632 63.49 86.5123 63.4257 86.4481C63.3615 86.3838 63.3106 86.3074 63.2759 86.2234C63.2413 86.1394 63.2236 86.0493 63.224 85.9584V85.1644C62.6083 86.0611 61.2915 86.8746 59.7034 86.8746C56.6788 86.8746 54.3872 84.2874 54.3872 81.1382C54.3872 77.989 56.6788 75.4017 59.701 75.4017V75.4017ZM60.1359 77.6005C58.1814 77.6005 56.845 79.1495 56.845 81.1333C56.845 83.1171 58.1643 84.666 60.1359 84.666C62.1075 84.666 63.4267 83.122 63.4267 81.1382C63.4267 79.1544 62.1075 77.6054 60.1359 77.6054V77.6005ZM68.4058 75.6216H70.8489V77.1193C71.5159 76.0174 72.7692 75.4091 74.2033 75.4091C76.7637 75.4091 78.4152 77.2145 78.4152 80.0192V86.6523H76.6733C76.5824 86.6526 76.4924 86.635 76.4083 86.6003C76.3243 86.5657 76.248 86.5148 76.1837 86.4505C76.1194 86.3862 76.0685 86.3099 76.0339 86.2259C75.9992 86.1418 75.9816 86.0518 75.9819 85.9609V80.4077C75.9819 78.6657 75.0975 77.603 73.6903 77.603C72.0778 77.603 70.8489 78.8588 70.8489 81.2139V86.6425H69.0997C69.0088 86.6428 68.9187 86.6252 68.8347 86.5905C68.7506 86.5559 68.6743 86.505 68.61 86.4407C68.5458 86.3765 68.4949 86.3001 68.4602 86.2161C68.4256 86.1321 68.4079 86.042 68.4082 85.9511L68.4058 75.6216ZM85.6395 75.4042C86.3203 75.3983 86.9932 75.5495 87.6059 75.8461C88.2187 76.1427 88.7547 76.5767 89.1723 77.1144V70.1173H91.591V86.6572H89.849C89.7581 86.6575 89.6681 86.6398 89.5841 86.6052C89.5 86.5706 89.4237 86.5197 89.3594 86.4554C89.2951 86.3911 89.2442 86.3148 89.2096 86.2307C89.175 86.1467 89.1573 86.0567 89.1576 85.9658V85.1718C88.542 86.0562 87.2031 86.8819 85.6249 86.8819C82.6028 86.8819 80.3111 84.2947 80.3111 81.1455C80.3111 77.9963 82.615 75.4091 85.6371 75.4091L85.6395 75.4042ZM86.072 77.6079C84.1175 77.6079 82.7811 79.1568 82.7811 81.1406C82.7811 83.1244 84.1004 84.6734 86.072 84.6734C88.0436 84.6734 89.3629 83.1244 89.3629 81.1406C89.3629 79.1568 88.0314 77.6079 86.072 77.6079ZM94.3419 75.6241H96.7606V77.5786C96.9728 76.9756 97.3659 76.4529 97.8862 76.0817C98.4066 75.7104 99.0288 75.5088 99.6679 75.5044C99.9861 75.5038 100.304 75.5341 100.616 75.5947V78.0916C100.222 77.9587 99.8098 77.8894 99.3943 77.8864C97.9993 77.8864 96.7435 79.0518 96.7435 81.2677V86.6425H95.0016C94.9107 86.6428 94.8206 86.6252 94.7366 86.5905C94.6526 86.5559 94.5762 86.505 94.5119 86.4407C94.4477 86.3765 94.3968 86.3001 94.3621 86.2161C94.3275 86.1321 94.3098 86.042 94.3102 85.9511V75.6192L94.3419 75.6241ZM107.171 86.8795C106.038 86.8718 104.933 86.5288 103.994 85.8938C103.056 85.2588 102.327 84.3602 101.899 83.3114C101.471 82.2625 101.363 81.1103 101.588 80.0002C101.814 78.89 102.364 77.8715 103.167 77.0732C103.971 76.2748 104.993 75.7324 106.105 75.5142C107.217 75.296 108.368 75.4118 109.414 75.8471C110.46 76.2824 111.354 77.0177 111.982 77.9602C112.611 78.9027 112.946 80.0102 112.946 81.1431C112.953 81.9015 112.808 82.6537 112.519 83.3552C112.231 84.0567 111.805 84.6935 111.267 85.228C110.729 85.7625 110.089 86.1839 109.386 86.4676C108.682 86.7512 107.929 86.8913 107.171 86.8795V86.8795ZM107.171 84.627C109.125 84.627 110.474 83.1024 110.474 81.1455C110.474 79.1886 109.103 77.6641 107.171 77.6641C105.238 77.6641 103.841 79.1886 103.841 81.1455C103.841 83.1024 105.211 84.627 107.171 84.627V84.627ZM116.12 73.22C115.69 73.22 115.278 73.0494 114.974 72.7456C114.671 72.4418 114.5 72.0298 114.5 71.6003C114.5 71.1707 114.671 70.7587 114.974 70.4549C115.278 70.1511 115.69 69.9805 116.12 69.9805C116.549 69.9805 116.961 70.1511 117.265 70.4549C117.569 70.7587 117.74 71.1707 117.74 71.6003C117.74 72.0298 117.569 72.4418 117.265 72.7456C116.961 73.0494 116.549 73.22 116.12 73.22V73.22ZM114.915 75.6265H117.334V86.6499H115.607C115.516 86.6502 115.426 86.6325 115.342 86.5979C115.258 86.5632 115.181 86.5123 115.117 86.4481C115.053 86.3838 115.002 86.3074 114.967 86.2234C114.933 86.1394 114.915 86.0493 114.915 85.9584V75.6192V75.6265ZM124.646 75.4091C125.327 75.4031 126 75.5544 126.613 75.851C127.225 76.1476 127.761 76.5816 128.179 77.1193V70.1173H130.612V86.6572H128.87C128.78 86.6575 128.69 86.6398 128.606 86.6052C128.521 86.5706 128.445 86.5197 128.381 86.4554C128.317 86.3911 128.266 86.3148 128.231 86.2307C128.196 86.1467 128.179 86.0567 128.179 85.9658V85.1718C127.563 86.0562 126.225 86.8819 124.646 86.8819C121.624 86.8819 119.333 84.2947 119.333 81.1455C119.333 77.9963 121.636 75.4091 124.659 75.4091H124.646ZM125.106 77.6079C123.151 77.6079 121.815 79.1568 121.815 81.1406C121.815 83.1244 123.134 84.6734 125.106 84.6734C127.077 84.6734 128.397 83.1244 128.397 81.1406C128.397 79.1568 127.065 77.6079 125.106 77.6079Z" fill="white"/>
<path d="M110.073 51.4077C109.447 51.4077 108.835 51.222 108.314 50.8742C107.794 50.5263 107.388 50.0319 107.148 49.4534C106.909 48.8749 106.846 48.2384 106.968 47.6243C107.09 47.0102 107.392 46.4461 107.834 46.0034C108.277 45.5607 108.841 45.2592 109.455 45.137C110.069 45.0149 110.706 45.0775 111.284 45.3172C111.863 45.5568 112.357 45.9625 112.705 46.4831C113.053 47.0037 113.239 47.6158 113.239 48.2419C113.239 49.0815 112.905 49.8868 112.311 50.4805C111.718 51.0742 110.913 51.4077 110.073 51.4077V51.4077ZM75.0027 51.4077C74.3765 51.4077 73.7645 51.222 73.2439 50.8742C72.7232 50.5263 72.3175 50.0319 72.0779 49.4534C71.8383 48.8749 71.7756 48.2384 71.8977 47.6243C72.0199 47.0102 72.3214 46.4461 72.7641 46.0034C73.2069 45.5607 73.7709 45.2592 74.385 45.137C74.9991 45.0149 75.6357 45.0775 76.2141 45.3172C76.7926 45.5568 77.287 45.9625 77.6349 46.4831C77.9828 47.0037 78.1684 47.6158 78.1684 48.2419C78.1684 49.0815 77.8349 49.8868 77.2412 50.4805C76.6475 51.0742 75.8423 51.4077 75.0027 51.4077ZM111.206 32.2928L117.576 21.3076C117.701 21.0082 117.712 20.6729 117.605 20.3662C117.498 20.0595 117.282 19.8031 116.998 19.6461C116.714 19.489 116.382 19.4425 116.065 19.5155C115.749 19.5885 115.471 19.7757 115.284 20.0413L108.845 31.1595C103.736 28.807 98.1779 27.5908 92.5536 27.5948C86.9269 27.5808 81.362 28.7681 76.231 31.0772L69.7918 19.997C69.6051 19.7314 69.3268 19.5441 69.0104 19.4712C68.694 19.3982 68.3618 19.4447 68.0776 19.6017C67.7934 19.7587 67.5772 20.0152 67.4706 20.3219C67.3639 20.6286 67.3743 20.9638 67.4998 21.2633L73.8313 32.2485C68.3514 35.2376 63.7035 39.5462 60.3083 44.7842C56.9132 50.0223 54.8781 56.0245 54.3872 62.2473H130.612C130.134 56.0299 128.108 50.0311 124.717 44.7978C121.326 39.5646 116.679 35.2634 111.2 32.2865" fill="#3FDA86"/>
</svg>
