<svg xmlns="http://www.w3.org/2000/svg" width="1920" height="1831" fill="none" viewBox="0 0 1920 1831"><g clip-path="url(#prefix__a)"><rect width="1920" height="1831" fill="url(#prefix__b)"/><g opacity=".299"><ellipse cx="1471.53" cy="893.619" fill="#672BD1" rx="5.252" ry="5.242"/><ellipse cx="1498.27" cy="893.619" fill="#672BD1" rx="5.252" ry="5.242"/><ellipse cx="1526.92" cy="893.619" fill="#672BD1" rx="5.252" ry="5.242"/><ellipse cx="1471.53" cy="893.619" fill="#672BD1" rx="5.252" ry="5.242"/><ellipse cx="1498.27" cy="893.619" fill="#672BD1" rx="5.252" ry="5.242"/><ellipse cx="1526.92" cy="893.619" fill="#672BD1" rx="5.252" ry="5.242"/><ellipse cx="1471.53" cy="921.138" fill="#672BD1" rx="5.252" ry="5.242"/><ellipse cx="1498.27" cy="921.138" fill="#672BD1" rx="5.252" ry="5.242"/><ellipse cx="1526.92" cy="921.138" fill="#672BD1" rx="5.252" ry="5.242"/><ellipse cx="1471.53" cy="921.138" fill="#672BD1" rx="5.252" ry="5.242"/><ellipse cx="1498.27" cy="921.138" fill="#672BD1" rx="5.252" ry="5.242"/><ellipse cx="1526.92" cy="921.138" fill="#672BD1" rx="5.252" ry="5.242"/><ellipse cx="1471.53" cy="948.656" fill="#652BD2" rx="5.252" ry="5.242"/><ellipse cx="1498.27" cy="948.656" fill="#652BD2" rx="5.252" ry="5.242"/><ellipse cx="1526.92" cy="948.656" fill="#652BD2" rx="5.252" ry="5.242"/><ellipse cx="1471.53" cy="948.656" fill="#652BD2" rx="5.252" ry="5.242"/><ellipse cx="1498.27" cy="948.656" fill="#652BD2" rx="5.252" ry="5.242"/><ellipse cx="1526.92" cy="948.656" fill="#652BD2" rx="5.252" ry="5.242"/><ellipse cx="1555.65" cy="893.619" fill="#672BD1" rx="5.252" ry="5.242"/><ellipse cx="1582.38" cy="893.619" fill="#672BD1" rx="5.252" ry="5.242"/><ellipse cx="1611.03" cy="893.619" fill="#672BD1" rx="5.252" ry="5.242"/><ellipse cx="1555.65" cy="893.619" fill="#672BD1" rx="5.252" ry="5.242"/><ellipse cx="1582.38" cy="893.619" fill="#672BD1" rx="5.252" ry="5.242"/><ellipse cx="1611.03" cy="893.619" fill="#672BD1" rx="5.252" ry="5.242"/><ellipse cx="1555.65" cy="921.138" fill="#672BD1" rx="5.252" ry="5.242"/><ellipse cx="1582.38" cy="921.138" fill="#672BD1" rx="5.252" ry="5.242"/><ellipse cx="1611.03" cy="921.138" fill="#672BD1" rx="5.252" ry="5.242"/><ellipse cx="1555.65" cy="921.138" fill="#672BD1" rx="5.252" ry="5.242"/><ellipse cx="1582.38" cy="921.138" fill="#672BD1" rx="5.252" ry="5.242"/><ellipse cx="1611.03" cy="921.138" fill="#672BD1" rx="5.252" ry="5.242"/><ellipse cx="1555.65" cy="948.656" fill="#672BD1" rx="5.252" ry="5.242"/><ellipse cx="1582.38" cy="948.656" fill="#672BD1" rx="5.252" ry="5.242"/><ellipse cx="1611.03" cy="948.656" fill="#672BD1" rx="5.252" ry="5.242"/><ellipse cx="1555.65" cy="948.656" fill="#672BD1" rx="5.252" ry="5.242"/><ellipse cx="1582.38" cy="948.656" fill="#672BD1" rx="5.252" ry="5.242"/><ellipse cx="1611.03" cy="948.656" fill="#672BD1" rx="5.252" ry="5.242"/></g><g opacity=".299"><ellipse cx="1471.53" cy="809.141" fill="#672BD1" rx="5.252" ry="5.242"/><ellipse cx="1498.27" cy="809.141" fill="#672BD1" rx="5.252" ry="5.242"/><ellipse cx="1526.92" cy="809.141" fill="#672BD1" rx="5.252" ry="5.242"/><ellipse cx="1471.53" cy="809.141" fill="#672BD1" rx="5.252" ry="5.242"/><ellipse cx="1498.27" cy="809.141" fill="#672BD1" rx="5.252" ry="5.242"/><ellipse cx="1526.92" cy="809.141" fill="#672BD1" rx="5.252" ry="5.242"/><ellipse cx="1471.53" cy="836.659" fill="#672BD1" rx="5.252" ry="5.242"/><ellipse cx="1498.27" cy="836.659" fill="#672BD1" rx="5.252" ry="5.242"/><ellipse cx="1526.92" cy="836.659" fill="#672BD1" rx="5.252" ry="5.242"/><ellipse cx="1471.53" cy="836.659" fill="#672BD1" rx="5.252" ry="5.242"/><ellipse cx="1498.27" cy="836.659" fill="#672BD1" rx="5.252" ry="5.242"/><ellipse cx="1526.92" cy="836.659" fill="#672BD1" rx="5.252" ry="5.242"/><ellipse cx="1471.53" cy="864.178" fill="#652BD2" rx="5.252" ry="5.242"/><ellipse cx="1498.27" cy="864.178" fill="#652BD2" rx="5.252" ry="5.242"/><ellipse cx="1526.92" cy="864.178" fill="#652BD2" rx="5.252" ry="5.242"/><ellipse cx="1471.53" cy="864.178" fill="#652BD2" rx="5.252" ry="5.242"/><ellipse cx="1498.27" cy="864.178" fill="#652BD2" rx="5.252" ry="5.242"/><ellipse cx="1526.92" cy="864.178" fill="#652BD2" rx="5.252" ry="5.242"/><ellipse cx="1555.65" cy="809.141" fill="#672BD1" rx="5.252" ry="5.242"/><ellipse cx="1582.38" cy="809.141" fill="#672BD1" rx="5.252" ry="5.242"/><ellipse cx="1611.03" cy="809.141" fill="#672BD1" rx="5.252" ry="5.242"/><ellipse cx="1555.65" cy="809.141" fill="#672BD1" rx="5.252" ry="5.242"/><ellipse cx="1582.38" cy="809.141" fill="#672BD1" rx="5.252" ry="5.242"/><ellipse cx="1611.03" cy="809.141" fill="#672BD1" rx="5.252" ry="5.242"/><ellipse cx="1555.65" cy="836.659" fill="#672BD1" rx="5.252" ry="5.242"/><ellipse cx="1582.38" cy="836.659" fill="#672BD1" rx="5.252" ry="5.242"/><ellipse cx="1611.03" cy="836.659" fill="#672BD1" rx="5.252" ry="5.242"/><ellipse cx="1555.65" cy="836.659" fill="#672BD1" rx="5.252" ry="5.242"/><ellipse cx="1582.38" cy="836.659" fill="#672BD1" rx="5.252" ry="5.242"/><ellipse cx="1611.03" cy="836.659" fill="#672BD1" rx="5.252" ry="5.242"/><ellipse cx="1555.65" cy="864.178" fill="#672BD1" rx="5.252" ry="5.242"/><ellipse cx="1582.38" cy="864.178" fill="#672BD1" rx="5.252" ry="5.242"/><ellipse cx="1611.03" cy="864.178" fill="#672BD1" rx="5.252" ry="5.242"/><ellipse cx="1555.65" cy="864.178" fill="#672BD1" rx="5.252" ry="5.242"/><ellipse cx="1582.38" cy="864.178" fill="#672BD1" rx="5.252" ry="5.242"/><ellipse cx="1611.03" cy="864.178" fill="#672BD1" rx="5.252" ry="5.242"/></g><rect width="208" height="65" x="947" y="285.898" fill="#AB8FEB" opacity=".4" rx="32.5" style="mix-blend-mode:color-dodge"/><g filter="url(#prefix__c)"><circle cx="1926.26" cy="1360.74" r="142.527" fill="#3B2AA3"/></g><g filter="url(#prefix__d)"><circle cx="142.527" cy="1795.55" r="142.527" fill="#262B9F"/></g><circle cx="1920.19" cy="1341.09" r="109.188" fill="url(#prefix__e)"/><g filter="url(#prefix__f)" opacity=".4" style="mix-blend-mode:hard-light"><circle cx="1031.5" cy="438.398" r="186.5" fill="#E157F8"/></g><g filter="url(#prefix__g)" opacity=".2" style="mix-blend-mode:hard-light"><circle cx="1697" cy="641.898" r="293" fill="#E157F8"/></g><g filter="url(#prefix__h)" opacity=".3" style="mix-blend-mode:screen"><circle cx="1355" cy="465.898" r="338" fill="#1FBCD3"/></g><rect width="208" height="65" x="1368" y="329.898" fill="#AB8FEB" opacity=".3" rx="32.5" style="mix-blend-mode:lighten"/><rect width="186" height="65" x="1061" y="692.898" fill="#AB8FEB" opacity=".4" rx="32.5" style="mix-blend-mode:color-dodge"/><rect width="208" height="65" x="1630" y="441.898" fill="#AB8FEB" opacity=".3" rx="32.5" style="mix-blend-mode:color-dodge"/><rect width="208" height="65" x="1489" y="580.898" fill="#AB8FEB" opacity=".2" rx="32.5" style="mix-blend-mode:color-dodge"/><rect width="208" height="65" x="947" y="285.898" fill="#AB8FEB" opacity=".4" rx="32.5" style="mix-blend-mode:color-dodge"/></g><defs><filter id="prefix__c" width="1285.05" height="1285.05" x="1283.74" y="718.215" color-interpolation-filters="sRGB" filterUnits="userSpaceOnUse"><feFlood flood-opacity="0" result="BackgroundImageFix"/><feBlend in="SourceGraphic" in2="BackgroundImageFix" result="shape"/><feGaussianBlur result="effect1_foregroundBlur_976_2003" stdDeviation="250"/></filter><filter id="prefix__d" width="1285.05" height="1285.05" x="-500" y="1153.02" color-interpolation-filters="sRGB" filterUnits="userSpaceOnUse"><feFlood flood-opacity="0" result="BackgroundImageFix"/><feBlend in="SourceGraphic" in2="BackgroundImageFix" result="shape"/><feGaussianBlur result="effect1_foregroundBlur_976_2003" stdDeviation="250"/></filter><filter id="prefix__f" width="621" height="621" x="721" y="127.898" color-interpolation-filters="sRGB" filterUnits="userSpaceOnUse"><feFlood flood-opacity="0" result="BackgroundImageFix"/><feBlend in="SourceGraphic" in2="BackgroundImageFix" result="shape"/><feGaussianBlur result="effect1_foregroundBlur_976_2003" stdDeviation="62"/></filter><filter id="prefix__g" width="834" height="834" x="1280" y="224.898" color-interpolation-filters="sRGB" filterUnits="userSpaceOnUse"><feFlood flood-opacity="0" result="BackgroundImageFix"/><feBlend in="SourceGraphic" in2="BackgroundImageFix" result="shape"/><feGaussianBlur result="effect1_foregroundBlur_976_2003" stdDeviation="62"/></filter><filter id="prefix__h" width="924" height="924" x="893" y="3.898" color-interpolation-filters="sRGB" filterUnits="userSpaceOnUse"><feFlood flood-opacity="0" result="BackgroundImageFix"/><feBlend in="SourceGraphic" in2="BackgroundImageFix" result="shape"/><feGaussianBlur result="effect1_foregroundBlur_976_2003" stdDeviation="62"/></filter><linearGradient id="prefix__b" x1="301" x2="2012" y1="-599" y2="2978.5" gradientUnits="userSpaceOnUse"><stop stop-color="#431877"/><stop offset=".458" stop-color="#201033"/></linearGradient><linearGradient id="prefix__e" x1="1811" x2="2008.58" y1="1181.13" y2="1450.28" gradientUnits="userSpaceOnUse"><stop offset=".159" stop-color="#A75FFF"/><stop offset=".262" stop-color="#431F6D"/><stop offset=".279" stop-color="#40196F"/><stop offset="1" stop-color="#11081E"/></linearGradient><clipPath id="prefix__a"><rect width="1920" height="1831" fill="#fff"/></clipPath></defs></svg>