<svg width="78" height="78" viewBox="0 0 78 78" fill="none" xmlns="http://www.w3.org/2000/svg">
<rect width="76.2465" height="76.2465" rx="38.1232" transform="matrix(1 0 0 -1 1 77.2461)" fill="#49C8DB"/>
<path d="M53.161 39.7862C52.1477 39.7862 51.1875 40.6478 51.1875 41.8089V51.9223H25.5328V25.6274H35.4C36.4689 25.6274 37.3734 24.7003 37.3734 23.6047C37.3734 23.0166 37.1072 22.5148 36.7688 22.1751C36.4331 21.8382 35.9486 21.582 35.4 21.582H24.5461C22.9108 21.582 21.5859 22.94 21.5859 24.6161V52.9336C21.5859 54.6097 22.9108 55.9677 24.5461 55.9677H52.1742C53.8095 55.9677 55.1344 54.6097 55.1344 52.9336V41.7937C55.1344 40.6816 54.2986 39.7862 53.161 39.7862Z" fill="white"/>
<path d="M48.4066 25.6274L30.0469 44.4443C29.2787 45.2317 29.2787 46.5082 30.0469 47.2955C30.8143 48.082 32.0597 48.0837 32.8277 47.2955L32.8286 47.2946L51.1875 28.4776V33.7181C51.1875 34.8349 52.0713 35.7408 53.1609 35.7408C54.2505 35.7408 55.1344 34.8349 55.1344 33.7181V23.6047C55.1344 22.5021 54.2367 21.582 53.1609 21.582H43.2937C42.2041 21.582 41.3203 22.4879 41.3203 23.6047C41.3203 24.7215 42.2041 25.6274 43.2937 25.6274H48.4066Z" fill="white"/>
</svg>
