<svg width="78" height="78" viewBox="0 0 78 78" fill="none" xmlns="http://www.w3.org/2000/svg">
<rect x="1" y="1" width="76.2465" height="76.2465" rx="38.1232" fill="#BB89CD"/>
<path fill-rule="evenodd" clip-rule="evenodd" d="M47.93 53.6453H30.3058C27.9945 53.6453 26.1211 51.7108 26.1211 49.3247V36.6883C26.1211 34.3017 27.9945 32.3672 30.3058 32.3672H47.93C50.2408 32.3672 52.1142 34.3017 52.1142 36.6883V49.3247C52.1142 51.7108 50.2408 53.6453 47.93 53.6453Z" stroke="white" stroke-width="3.75913" stroke-linecap="round" stroke-linejoin="round"/>
<path d="M30.9453 31.3656V28.4393C30.9453 24.18 34.4369 20.7266 38.7432 20.7266C43.0501 20.7266 46.5412 24.18 46.5412 28.4393V31.2276" stroke="white" stroke-width="3.75913" stroke-linecap="round" stroke-linejoin="round"/>
<path fill-rule="evenodd" clip-rule="evenodd" d="M41.7182 43.0038C41.7182 44.4728 40.5548 45.6633 39.1191 45.6633C37.6834 45.6633 36.5195 44.4728 36.5195 43.0038C36.5195 41.5347 37.6834 40.3438 39.1191 40.3438C40.5548 40.3438 41.7182 41.5347 41.7182 43.0038" fill="white"/>
</svg>
