<svg width="78" height="78" viewBox="0 0 78 78" fill="none" xmlns="http://www.w3.org/2000/svg">
<rect x="1" y="2" width="76.6172" height="74.5085" rx="37.2542" fill="#FFA192"/>
<path fill-rule="evenodd" clip-rule="evenodd" d="M24.4832 36.1283C24.4832 29.1655 30.1276 23.521 37.0905 23.521C44.0533 23.521 49.6977 29.1655 49.6977 36.1283C49.6977 39.5263 48.3534 42.6103 46.1676 44.8776C46.1069 44.9244 46.0485 44.9757 45.9928 45.0313C45.9371 45.087 45.8859 45.1454 45.8391 45.206C43.5719 47.3915 40.4882 48.7356 37.0905 48.7356C30.1276 48.7356 24.4832 43.0911 24.4832 36.1283ZM47.2077 48.7933C44.4348 51.0114 40.9175 52.3376 37.0905 52.3376C28.1383 52.3376 20.8811 45.0805 20.8811 36.1283C20.8811 27.1761 28.1383 19.9189 37.0905 19.9189C46.0426 19.9189 53.2998 27.1761 53.2998 36.1283C53.2998 39.9557 51.9733 43.4733 49.7549 46.2464L56.3744 52.8659C57.0777 53.5692 57.0777 54.7096 56.3744 55.4129C55.671 56.1163 54.5307 56.1163 53.8273 55.4129L47.2077 48.7933Z" fill="white"/>
</svg>
