<svg width="78" height="78" viewBox="0 0 78 78" fill="none" xmlns="http://www.w3.org/2000/svg">
<rect width="76.2465" height="76.2465" rx="38.1232" transform="matrix(1 0 0 -1 1 77.2461)" fill="#49C8DB"/>
<path d="M43.5448 25.8249C43.5448 25.1717 43.0553 23.7773 41.5685 23.7773C40.7025 23.7773 39.9039 24.3589 39.6549 25.2633L31.7253 53.9832C31.6732 54.1713 31.6484 54.3609 31.6484 54.5474C31.5945 55.2089 32.1459 56.6 33.6327 56.6C34.4951 56.6 35.2886 56.013 35.5377 55.1114L43.4673 26.3916C43.52 26.2012 43.5448 26.0115 43.5448 25.8249ZM28.6767 32.951C28.6767 31.7791 27.7505 30.8996 26.6943 30.8996C26.187 30.8996 25.6795 31.0999 25.293 31.5007L18.3545 38.6806C17.967 39.1373 17.7734 39.663 17.7734 40.131C17.7734 40.5989 17.967 41.24 18.3542 41.6375L25.2927 48.8174C25.6783 49.2213 26.1863 49.3623 26.6943 49.3623C27.7505 49.3623 28.6767 48.4822 28.6767 47.3109C28.6767 46.786 28.4831 46.2609 28.0959 45.8602L22.5591 40.131L28.0962 34.4011C28.4846 34.0537 28.6767 33.5344 28.6767 32.951ZM57.4216 40.131C57.4216 39.6061 57.228 39.0809 56.8408 38.6802L49.9024 31.5003C49.5168 31.156 49.0088 30.8996 48.5008 30.8996C47.4445 30.8996 46.5184 31.7798 46.5184 32.951C46.5184 33.4759 46.712 34.0011 47.0991 34.4018L52.6363 40.1316L47.0991 45.8615C46.7104 46.3173 46.5184 46.8429 46.5184 47.3109C46.5184 48.4828 47.4445 49.3623 48.5008 49.3623C49.008 49.3623 49.5155 49.162 49.9021 48.7613L56.8405 41.5813C57.2296 41.24 57.4216 40.7143 57.4216 40.131Z" fill="white"/>
</svg>
