<svg width="50" height="50" viewBox="-10 -10 60 60" fill="none" xmlns="http://www.w3.org/2000/svg">
<path fill-rule="evenodd" clip-rule="evenodd" d="M24.704 42.0777H6.29601C3.92326 42.0777 2 40.1544 2 37.7817V7.22348C2 4.85075 3.92326 2.92749 6.29601 2.92749H24.704C27.0767 2.92749 29 4.85075 29 7.22348V37.7817C29 40.1544 27.0767 42.0777 24.704 42.0777Z" stroke="#1FBCD3" stroke-width="3.98335" stroke-linecap="round" stroke-linejoin="round"/>
<path fill-rule="evenodd" clip-rule="evenodd" d="M17.4113 34.5247C17.4113 35.5808 16.5558 36.4363 15.4998 36.4363C14.4446 36.4363 13.5882 35.5808 13.5882 34.5247C13.5882 33.4687 14.4446 32.6132 15.4998 32.6132C16.5558 32.6132 17.4113 33.4687 17.4113 34.5247Z" fill="#1FBCD3"/>
<path d="M9.14923 8.85585H21.8468" stroke="#1FBCD3" stroke-width="2.98751" stroke-linecap="round" stroke-linejoin="round"/>
</svg>
