<svg width="116" height="115" viewBox="0 0 116 115" fill="none" xmlns="http://www.w3.org/2000/svg">
<path d="M27 102.86V44.986C27 41.9014 28.7555 39.0858 31.5252 37.728L84.6836 11.6695C86.2548 10.8993 88.0892 12.043 88.0892 13.7928V70.8144C88.0892 73.8616 86.3756 76.6499 83.6569 78.0261L30.4328 104.97C28.8598 105.766 27 104.623 27 102.86Z" fill="url(#paint0_linear_976_2669)"/>
<path d="M65.6647 43.8892C66.0338 43.9206 66.2183 44.2418 66.5874 44.2732C66.772 44.3907 66.772 44.3907 66.9565 44.5082L65.7108 45.7005C64.7881 46.3348 64.0499 47.6975 64.2345 48.8333C64.419 49.7654 65.1572 50.0319 66.0799 49.6013C66.2645 49.5152 66.2645 49.5152 66.449 49.4291L72.1238 45.1516C73.0465 44.5174 73.7847 43.1546 73.6002 42.0188L72.1238 34.3581C71.9393 33.4259 71.0165 33.0419 69.9092 33.7623C68.9865 34.3966 68.2483 35.7593 68.4329 36.8951L68.9865 40.0988C68.6174 39.8638 68.0638 39.5112 67.6947 39.4798C67.6947 39.4798 67.6947 39.4798 67.5102 39.5659C67.3256 39.4483 67.1411 39.3308 66.9565 39.4169C66.5874 39.1819 66.2183 39.1505 65.6647 39.0015C65.1111 38.8526 64.5574 38.9073 64.0038 38.7584L63.8192 38.8445C63.6347 38.727 63.2656 38.8992 62.8965 38.8678C62.1583 39.0086 61.4201 39.1495 60.8665 39.2042C60.4974 39.3764 60.1283 39.345 59.7592 39.5172L59.5747 39.6034C59.3901 39.6895 59.021 39.8617 58.8365 39.9479C58.4674 40.1201 57.9138 40.3785 57.5447 40.5507C48.3174 44.8568 40.9355 56.4477 40.9355 66.6303C40.9355 76.8129 48.3174 81.5141 57.5447 77.208C66.772 72.902 74.1538 61.311 74.1538 51.1284C74.1538 49.9065 73.4156 49.4364 72.3083 49.9531C71.2011 50.4699 70.4629 51.629 70.4629 52.8509C70.4629 60.7933 64.742 69.7763 57.5447 73.135C50.3474 76.4937 44.6265 72.8503 44.6265 64.9079C44.6265 56.9654 50.3474 47.9825 57.5447 44.6237C57.9138 44.4515 58.4674 44.1931 58.8365 44.0209C59.2056 43.8486 59.3901 43.7625 59.7592 43.7939C60.1283 43.6217 60.3129 43.7392 60.682 43.567C60.8665 43.4809 61.051 43.5984 61.2356 43.5123C62.5274 43.3167 63.8192 43.3248 64.9265 43.8264C65.1111 43.9439 65.2956 43.8578 65.4801 43.9753C65.4801 43.568 65.6647 43.6855 65.6647 43.8892Z" fill="white"/>
<path d="M53.2891 55.1895L61.8009 51.2173M53.2891 59.1032L61.8009 55.131M59.3183 66.4654L53.2891 63.017L55.417 62.024C60.1461 59.8171 60.1461 51.9895 55.417 54.1964" stroke="white" stroke-width="2.2" stroke-linecap="round" stroke-linejoin="round"/>
<defs>
<linearGradient id="paint0_linear_976_2669" x1="57.5446" y1="25.8718" x2="57.5446" y2="106.707" gradientUnits="userSpaceOnUse">
<stop stop-color="#EF678A"/>
<stop offset="1" stop-color="#593B80"/>
</linearGradient>
</defs>
</svg>
