<svg width="116" height="115" viewBox="0 0 116 115" fill="none" xmlns="http://www.w3.org/2000/svg">
<path fill-rule="evenodd" clip-rule="evenodd" d="M57.7616 16C55.9925 16 54.2545 16.4652 52.722 17.349L52.7176 17.3515L25.0524 33.1602L25.044 33.165C23.5119 34.0496 22.2394 35.3214 21.3541 36.853C20.4688 38.3846 20.0018 40.122 20 41.8911V73.5226C20.0018 75.2916 20.4688 77.0291 21.3541 78.5607C22.2394 80.0923 23.5119 81.3641 25.044 82.2486L25.0524 82.2535L52.7176 98.0621L52.7224 98.0649C54.1672 98.898 55.7947 99.3591 57.4587 99.4091C57.5586 99.4231 57.6606 99.4304 57.7644 99.4304C57.8686 99.4304 57.9712 99.423 58.0716 99.4089C59.7349 99.3578 61.3616 98.8958 62.8055 98.0621L62.8285 98.0487L61.7149 96.1732C62.8285 98.0487 62.8285 98.0487 62.8285 98.0487L62.8297 98.0479L62.8336 98.0456L64.0605 97.3173C64.8468 96.8507 65.9736 96.182 67.3354 95.374C70.059 93.7582 73.7225 91.5854 77.4824 89.3577C85.0168 84.8936 92.8991 80.2322 94.4221 79.3641C95.1028 78.976 95.5231 78.2527 95.5231 77.4691V41.8911C95.5213 40.122 95.0543 38.3846 94.169 36.853C93.2837 35.3214 92.0112 34.0496 90.4792 33.165L62.8055 17.3515L62.8011 17.349C61.2686 16.4652 59.5307 16 57.7616 16Z" fill="url(#paint0_linear_976_2686)"/>
<path d="M61.4729 87.6694C61.4729 87.2146 61.7195 86.7955 62.1171 86.5747L77.6467 77.9476C78.4814 77.4839 79.5072 78.0875 79.5072 79.0423V81.708C79.5072 82.1629 79.2606 82.5819 78.863 82.8028L63.3334 91.4299C62.4987 91.8936 61.4729 91.29 61.4729 90.3351V87.6694Z" fill="#825EBB"/>
<path d="M61.4729 79.8863C61.4729 79.435 61.7157 79.0187 62.1084 78.7964L69.3732 74.6848C70.208 74.2123 71.2423 74.8154 71.2423 75.7746V78.4276C71.2423 78.8788 70.9996 79.2952 70.6069 79.5174L63.342 83.6291C62.5072 84.1016 61.4729 83.4985 61.4729 82.5392V79.8863Z" fill="#825EBB"/>
<path d="M42.3953 51.3173C42.416 51.3294 42.4419 51.3287 42.462 51.3154L79.5065 26.797L71.3363 22.0996L34.169 46.386C34.156 46.3945 34.1397 46.3963 34.1252 46.3908V46.3908C34.0934 46.3789 34.0595 46.4024 34.0595 46.4363L34.0591 68.1157L38.0063 66.3455L42.3003 72.0376V51.3719C42.3003 51.3232 42.3531 51.2928 42.3953 51.3173V51.3173Z" fill="#FDEDB9"/>
<defs>
<linearGradient id="paint0_linear_976_2686" x1="20" y1="16" x2="66.3557" y2="124.5" gradientUnits="userSpaceOnUse">
<stop stop-color="#E691FF"/>
<stop offset="1" stop-color="#7D68FF" stop-opacity="0.35"/>
</linearGradient>
</defs>
</svg>
