<svg width="116" height="115" viewBox="0 0 116 115" fill="none" xmlns="http://www.w3.org/2000/svg">
<path d="M39.9835 20.4495C33.9683 22.4508 29.9087 28.5761 28.2535 36.9614C26.5982 45.3466 27.3647 55.9103 30.951 66.6895C34.5372 77.4686 40.2602 86.3966 46.6024 92.1122C52.9446 97.8277 59.87 100.303 65.8851 98.3015L76.7124 94.6992L50.8107 16.8473L39.9835 20.4495Z" fill="#EAB95B"/>
<path d="M39.9835 20.4495C33.9683 22.4508 29.9087 28.5761 28.2535 36.9614C26.5982 45.3466 27.3647 55.9103 30.951 66.6895C34.5372 77.4686 40.2602 86.3966 46.6024 92.1122C52.9446 97.8277 59.87 100.303 65.8851 98.3015L76.7124 94.6992L50.8107 16.8473L39.9835 20.4495Z" fill="#5E3C87"/>
<path d="M49.4151 17.3122C43.4 19.3135 39.3404 25.4388 37.6851 33.824C36.0299 42.2093 36.7924 52.7744 40.3786 63.5535C43.9649 74.3326 49.6878 83.2606 56.0301 88.9762C62.3723 94.6918 69.2977 97.1668 75.3128 95.1655C81.328 93.1642 85.3875 87.0389 87.0441 78.6577C88.7007 70.2764 87.9329 59.7087 84.3453 48.9256C80.7577 38.1424 75.0374 29.2224 68.6952 23.5069C62.353 17.7913 55.4303 15.3109 49.4151 17.3122Z" fill="url(#paint0_linear_976_2693)"/>
<path d="M53.606 27.6925C49.3986 29.0923 46.5871 33.4889 45.4835 39.5589C44.38 45.6288 45.0004 53.2946 47.6123 61.1451C50.2241 68.9956 54.3256 75.5108 58.84 79.7041C63.3544 83.8973 68.2451 85.739 72.4526 84.3391C76.66 82.9393 79.4578 78.5472 80.566 72.4568C81.6741 66.3663 81.0491 58.721 78.4372 50.8705C75.8253 43.02 71.7238 36.5048 67.2095 32.3116C62.6951 28.1183 57.81 26.2938 53.606 27.6925Z" fill="#1F1E23"/>
<path fill-rule="evenodd" clip-rule="evenodd" d="M45.4649 39.615C47.8059 26.5529 57.5652 23.306 67.265 32.362C76.9648 41.4181 82.9318 59.3528 80.5919 72.4183C78.5025 84.0783 70.5099 87.9305 61.9095 82.1674C69.5222 86.7774 76.5137 83.1367 78.3767 72.7374C80.529 60.7183 75.0377 44.2135 66.1161 35.8863C57.1945 27.5591 48.213 30.5398 46.0606 42.5589C44.9833 48.5821 45.8184 55.7168 48.0399 62.3826C45.3138 54.7942 44.2264 46.5239 45.4649 39.615Z" fill="#2C2E32"/>
<path d="M29.9452 62.5837L38.9518 59.5871C39.1711 60.2462 40.3585 64.535 40.9252 66.2385C41.492 67.9419 44.9012 75.2397 47.4279 79.2472C56.5839 93.7692 66.2119 95.5138 71.1509 96.1738L63.6143 98.6813C52.8599 99.5743 45.7787 90.7084 41.2175 86.1993C35.3488 78.8251 31.2265 67.4504 29.9452 62.5837Z" fill="#2C2E32"/>
<defs>
<linearGradient id="paint0_linear_976_2693" x1="77.1918" y1="92.6318" x2="54.1018" y2="11.894" gradientUnits="userSpaceOnUse">
<stop stop-color="#227D63"/>
<stop offset="1" stop-color="#7CD5CA"/>
</linearGradient>
</defs>
</svg>
