<svg width="185" height="106" viewBox="0 0 185 106" fill="none" xmlns="http://www.w3.org/2000/svg">
<path d="M85.1317 39.8672C85.1317 40.5386 84.7232 41.0352 84.0225 41.0352C83.4391 41.0352 83 40.5386 83 39.8672C83 39.1958 83.4672 38.6992 84.0799 38.6992C84.6926 38.6992 85.1317 39.2251 85.1317 39.8672V39.8672ZM83.5157 74.9664V48.1183H84.616V74.9664H83.5157Z" fill="white"/>
<path d="M121.22 55.8363C121.22 69.372 113.705 75.5246 105.481 75.5246C97.2567 75.5246 90.2744 68.869 90.2744 56.3954C90.2744 43.9217 97.3154 36.707 106.072 36.707C114.651 36.707 121.22 43.4749 121.22 55.8363ZM91.3888 56.1158C91.3888 66.3786 96.3632 74.3528 105.532 74.3528C114.701 74.3528 120.061 66.1348 120.061 55.9996C120.061 46.601 115.818 38.0244 106.136 38.0244C96.4538 38.0244 91.3901 46.0993 91.3901 56.1171L91.3888 56.1158Z" fill="white"/>
<path d="M125.26 72.0562C127.106 73.2867 130.293 74.4751 133.034 74.4751C138.235 74.4751 142.861 70.8359 142.861 65.4798C142.861 60.5092 139.78 57.9154 134.548 55.688C129.864 53.6941 125.655 51.5292 125.655 46.2166C125.655 40.9039 130.016 36.7617 135.946 36.7617C139.134 36.7617 141.539 37.6565 142.657 38.4403L142.212 39.4053C141.261 38.7351 138.691 37.8799 135.896 37.8799C129.63 37.8799 126.9 42.6143 126.9 46.1004C126.9 50.9153 130.633 52.5249 135.443 54.8174C141.036 57.558 144 59.9744 144 65.2322C144 70.8818 139.973 75.4682 132.814 75.4682C129.849 75.4682 126.438 74.4611 124.76 73.1744L125.26 72.0549V72.0562Z" fill="white"/>
<path d="M72.0628 54.487C72.0108 48.8922 76.6303 46.2018 76.8382 46.0734C74.2395 42.2732 70.1948 41.7534 68.7548 41.6892C65.3123 41.3407 62.0379 43.7162 60.2922 43.7162C58.5465 43.7162 55.85 41.7412 52.9976 41.7962C49.2432 41.8513 45.7854 43.9761 43.8502 47.336C39.9521 54.1018 42.8535 64.1235 46.6537 69.6114C48.5095 72.2926 50.7229 75.3132 53.6335 75.2031C56.4339 75.0931 57.4918 73.3932 60.8762 73.3932C64.2606 73.3932 65.2114 75.2031 68.1739 75.145C71.1884 75.0931 73.0961 72.4088 74.9397 69.7184C77.0706 66.603 77.948 63.5855 78 63.4295C77.9327 63.399 72.127 61.1733 72.0658 54.4839" fill="white"/>
<path d="M66.4984 38.0593C68.0423 36.1882 69.0818 33.5895 68.7975 31C66.5748 31.0917 63.8814 32.4828 62.2855 34.3508C60.8546 36.0048 59.6042 38.6493 59.9405 41.1899C62.42 41.3825 64.9545 39.9303 66.4984 38.0593" fill="white"/>
</svg>
