<svg width="185" height="107" viewBox="0 0 185 107" fill="none" xmlns="http://www.w3.org/2000/svg">
<path d="M54.0277 67.3242C54.0277 67.3242 52.0927 68.4498 55.4062 68.8317C59.4202 69.2895 61.469 69.2238 65.8928 68.3865C65.8928 68.3865 67.0563 69.115 68.6802 69.7473C58.7651 73.9966 46.2423 69.502 54.0302 67.3242" fill="#0B6FB6"/>
<path d="M52.8166 61.7793C52.8166 61.7793 50.6464 63.3854 53.9598 63.7294C58.2471 64.1721 61.6314 64.2075 67.4893 63.0794C67.4893 63.0794 68.2987 63.9014 69.5735 64.3491C57.5869 67.8548 44.237 64.6248 52.814 61.7793" fill="#0B6FB6"/>
<path d="M63.0298 52.3768C65.4732 55.1894 62.3874 57.7188 62.3874 57.7188C62.3874 57.7188 68.5893 54.5166 65.7413 50.5076C63.0804 46.7692 61.0418 44.9102 72.0849 38.5059C72.0849 38.5059 54.7487 42.8361 63.0273 52.3768" fill="#E11F22"/>
<path d="M76.1421 71.4268C76.1421 71.4268 77.5737 72.608 74.5637 73.5186C68.8424 75.2512 50.7474 75.7748 45.7191 73.5869C43.9131 72.8003 47.2999 71.7101 48.3673 71.48C49.4777 71.2397 50.1151 71.2827 50.1151 71.2827C48.1068 69.8662 37.1269 74.0624 44.5378 75.2639C64.7524 78.5419 81.3854 73.7867 76.1421 71.4218" fill="#0B6FB6"/>
<path d="M54.9585 56.0375C54.9585 56.0375 45.7542 58.2228 51.6982 59.017C54.2073 59.3534 59.2129 59.2776 63.872 58.8855C67.6812 58.5643 71.5055 57.8814 71.5055 57.8814C71.5055 57.8814 70.1624 58.4555 69.1912 59.1207C59.8452 61.5793 41.7882 60.436 46.986 57.9218C51.382 55.7972 54.956 56.0375 54.956 56.0375" fill="#0B6FB6"/>
<path d="M71.4701 65.2651C80.9728 60.3278 76.5793 55.5827 73.5112 56.2226C72.76 56.3795 72.4236 56.5135 72.4236 56.5135C72.4236 56.5135 72.7019 56.0759 73.2355 55.8862C79.3009 53.754 83.9676 62.1767 71.2778 65.5129C71.2778 65.5129 71.4245 65.3814 71.4675 65.2651" fill="#0B6FB6"/>
<path d="M65.7414 28.1602C65.7414 28.1602 71.0024 33.4237 60.751 41.5176C52.5306 48.0105 58.8767 51.7134 60.7485 55.9425C55.9503 51.6123 52.4269 47.8005 54.7893 44.2544C58.2571 39.0465 67.866 36.5222 65.7414 28.1602" fill="#E11F22"/>
<path d="M55.892 78.6427C65.0129 79.227 79.0179 78.319 79.3492 74.0039C79.3492 74.0039 78.7118 75.6404 71.8117 76.938C64.0264 78.4024 54.4275 78.233 48.7314 77.2921C48.7314 77.2921 49.8975 78.2557 55.892 78.6402" fill="#0B6FB6"/>
<path d="M108.677 68.8274C107.413 69.9243 106.078 70.5415 104.877 70.5415C103.166 70.5415 102.24 69.5153 102.24 67.8681C102.24 66.087 103.23 64.7856 107.204 64.7856H108.677V68.8274M112.168 72.765V60.5766C112.168 57.4607 110.391 55.4082 106.111 55.4082C103.613 55.4082 101.422 56.0254 99.6414 56.8137L100.155 58.9703C101.556 58.4572 103.371 57.9775 105.148 57.9775C107.613 57.9775 108.677 58.9703 108.677 61.0228V62.5621H107.446C101.452 62.5621 98.749 64.8897 98.749 68.3812C98.749 71.393 100.53 73.1071 103.884 73.1071C106.041 73.1071 107.651 72.2184 109.153 70.9133L109.424 72.765H112.161H112.168Z" fill="#E11F22"/>
<path d="M123.814 72.7669H119.46L114.221 55.7188H118.021L121.271 66.1931L121.992 69.3424C123.635 64.7876 124.799 60.1658 125.383 55.7188H129.079C128.09 61.3333 126.305 67.4945 123.81 72.7669" fill="#E11F22"/>
<path d="M140.513 68.8274C139.245 69.9243 137.906 70.5415 136.709 70.5415C135.002 70.5415 134.072 69.5153 134.072 67.8681C134.072 66.087 135.065 64.7856 139.04 64.7856H140.513V68.8274ZM144 72.765V60.5766C144 57.4607 142.219 55.4082 137.943 55.4082C135.441 55.4082 133.251 56.0254 131.473 56.8137L131.987 58.9703C133.388 58.4572 135.207 57.9775 136.984 57.9775C139.449 57.9775 140.513 58.9703 140.513 61.0228V62.5621H139.278C133.284 62.5621 130.581 64.8897 130.581 68.3812C130.581 71.393 132.362 73.1071 135.716 73.1071C137.873 73.1071 139.483 72.2184 140.988 70.9133L141.264 72.765H144V72.765Z" fill="#E11F22"/>
<path d="M94.9229 75.6619C93.9264 77.1157 92.3201 78.2647 90.5614 78.9154L88.8398 76.8889C90.1784 76.2011 91.3274 75.093 91.8591 74.0593C92.3201 73.1409 92.5135 71.9548 92.5135 69.1215V49.6602H96.2206V68.8575C96.2206 72.6464 95.9157 74.1746 94.9229 75.6656" fill="#E11F22"/>
</svg>
